<?xml version="1.0" encoding="UTF-8"?>
<!DOCTYPE svg PUBLIC "-//W3C//DTD SVG 1.1//EN" "http://www.w3.org/Graphics/SVG/1.1/DTD/svg11.dtd">
<svg xmlns="http://www.w3.org/2000/svg" version="1.1" width="250px" height="250px" style="shape-rendering:geometricPrecision; text-rendering:geometricPrecision; image-rendering:optimizeQuality; fill-rule:evenodd; clip-rule:evenodd" xmlns:xlink="http://www.w3.org/1999/xlink">
<g><path style="opacity:1" fill="#fdfdfd" d="M -0.5,-0.5 C 82.8333,-0.5 166.167,-0.5 249.5,-0.5C 249.5,82.8333 249.5,166.167 249.5,249.5C 166.167,249.5 82.8333,249.5 -0.5,249.5C -0.5,166.167 -0.5,82.8333 -0.5,-0.5 Z"/></g>
<g><path style="opacity:1" fill="#010101" d="M 52.5,41.5 C 64.1714,41.3335 75.8381,41.5001 87.5,42C 92.9104,43.7425 96.7437,47.2425 99,52.5C 99.6667,64.1667 99.6667,75.8333 99,87.5C 97.1667,93.3333 93.3333,97.1667 87.5,99C 75.8333,99.6667 64.1667,99.6667 52.5,99C 47.2425,96.7437 43.7425,92.9104 42,87.5C 41.3333,75.8333 41.3333,64.1667 42,52.5C 44.3566,47.6455 47.8566,43.9788 52.5,41.5 Z"/></g>
<g><path style="opacity:1" fill="#050505" d="M 120.5,41.5 C 129.657,40.4892 133.49,44.4892 132,53.5C 127.625,58.3815 122.958,58.7148 118,54.5C 115.458,49.4379 116.292,45.1046 120.5,41.5 Z"/></g>
<g><path style="opacity:1" fill="#010101" d="M 160.5,41.5 C 172.171,41.3335 183.838,41.5001 195.5,42C 200.91,43.7425 204.744,47.2425 207,52.5C 207.667,64.1667 207.667,75.8333 207,87.5C 205.193,93.3072 201.36,97.1405 195.5,99C 184.167,99.6667 172.833,99.6667 161.5,99C 155.667,97.1667 151.833,93.3333 150,87.5C 149.333,75.8333 149.333,64.1667 150,52.5C 152.357,47.6455 155.857,43.9788 160.5,41.5 Z"/></g>
<g><path style="opacity:1" fill="#fefffe" d="M 82.5,57.5 C 82.5,65.8333 82.5,74.1667 82.5,82.5C 74.1667,82.5 65.8333,82.5 57.5,82.5C 57.5,74.1667 57.5,65.8333 57.5,57.5C 65.8333,57.5 74.1667,57.5 82.5,57.5 Z"/></g>
<g><path style="opacity:1" fill="#fefffe" d="M 166.5,57.5 C 174.833,57.5 183.167,57.5 191.5,57.5C 191.5,65.8333 191.5,74.1667 191.5,82.5C 191.5,74.1667 191.5,65.8333 191.5,57.5C 183.167,57.5 174.833,57.5 166.5,57.5 Z"/></g>
<g><path style="opacity:1" fill="#020202" d="M 121.5,74.5 C 126.219,73.7404 129.719,75.4071 132,79.5C 139.804,125.365 121.304,142.199 76.5,130C 73.2261,124.631 74.2261,120.298 79.5,117C 90.5576,116.907 101.558,116.24 112.5,115C 113.333,114.167 114.167,113.333 115,112.5C 116.125,101.248 116.958,89.9148 117.5,78.5C 118.549,76.7844 119.882,75.4511 121.5,74.5 Z"/></g>
<g><path style="opacity:1" fill="#545454" d="M 82.5,57.5 C 83.493,65.9839 83.8264,74.6506 83.5,83.5C 74.6506,83.8264 65.9839,83.493 57.5,82.5C 65.8333,82.5 74.1667,82.5 82.5,82.5C 82.5,74.1667 82.5,65.8333 82.5,57.5 Z"/></g>
<g><path style="opacity:1" fill="#545454" d="M 166.5,57.5 C 166.5,65.8333 166.5,74.1667 166.5,82.5C 174.833,82.5 183.167,82.5 191.5,82.5C 183.016,83.493 174.349,83.8264 165.5,83.5C 165.174,74.6506 165.507,65.9839 166.5,57.5 Z"/></g>
<g><path style="opacity:1" fill="#050505" d="M 45.5,116.5 C 54.6571,115.489 58.4904,119.489 57,128.5C 52.6248,133.381 47.9581,133.715 43,129.5C 40.4582,124.438 41.2915,120.105 45.5,116.5 Z"/></g>
<g><path style="opacity:1" fill="#050505" d="M 154.5,116.5 C 160.29,116.096 165.956,116.596 171.5,118C 174.848,121.419 175.348,125.252 173,129.5C 172.097,130.701 170.931,131.535 169.5,132C 163.719,132.903 158.053,132.57 152.5,131C 148.062,125.373 148.729,120.54 154.5,116.5 Z"/></g>
<g><path style="opacity:1" fill="#050505" d="M 195.5,116.5 C 204.711,115.542 208.545,119.542 207,128.5C 202,133.833 197,133.833 192,128.5C 190.593,123.643 191.76,119.643 195.5,116.5 Z"/></g>
<g><path style="opacity:1" fill="#010101" d="M 52.5,149.5 C 64.1714,149.333 75.8381,149.5 87.5,150C 93.3333,151.833 97.1667,155.667 99,161.5C 99.6667,172.833 99.6667,184.167 99,195.5C 97.1405,201.36 93.3072,205.193 87.5,207C 75.8333,207.667 64.1667,207.667 52.5,207C 47.2425,204.744 43.7425,200.91 42,195.5C 41.3333,183.833 41.3333,172.167 42,160.5C 44.3566,155.645 47.8566,151.979 52.5,149.5 Z"/></g>
<g><path style="opacity:1" fill="#0b0b0b" d="M 121.5,149.5 C 130.174,149.006 133.674,153.006 132,161.5C 126.916,168.059 121.916,168.059 117,161.5C 115.474,156.239 116.974,152.239 121.5,149.5 Z"/></g>
<g><path style="opacity:1" fill="#050505" d="M 170.5,149.5 C 181.172,149.333 191.839,149.5 202.5,150C 208.747,154.514 209.08,159.514 203.5,165C 202.5,165.333 201.5,165.667 200.5,166C 190.5,166.333 180.5,166.667 170.5,167C 169.333,168.167 168.167,169.333 167,170.5C 166.667,180.833 166.333,191.167 166,201.5C 163.505,207.255 159.338,208.922 153.5,206.5C 151.803,205.636 150.637,204.303 150,202.5C 149.333,191.167 149.333,179.833 150,168.5C 153.697,158.602 160.53,152.269 170.5,149.5 Z"/></g>
<g><path style="opacity:1" fill="#fefffe" d="M 57.5,166.5 C 65.8333,166.5 74.1667,166.5 82.5,166.5C 82.5,174.833 82.5,183.167 82.5,191.5C 82.5,183.167 82.5,174.833 82.5,166.5C 74.1667,166.5 65.8333,166.5 57.5,166.5 Z"/></g>
<g><path style="opacity:1" fill="#545454" d="M 57.5,166.5 C 65.9839,165.507 74.6506,165.174 83.5,165.5C 83.8264,174.349 83.493,183.016 82.5,191.5C 82.5,183.167 82.5,174.833 82.5,166.5C 74.1667,166.5 65.8333,166.5 57.5,166.5 Z"/></g>
<g><path style="opacity:1" fill="#050505" d="M 121.5,182.5 C 125.987,182.161 129.487,183.827 132,187.5C 132.667,192.5 132.667,197.5 132,202.5C 129.459,207.069 125.625,208.569 120.5,207C 118.951,205.786 117.785,204.286 117,202.5C 116.333,197.5 116.333,192.5 117,187.5C 118.366,185.638 119.866,183.972 121.5,182.5 Z"/></g>
<g><path style="opacity:1" fill="#050505" d="M 195.5,191.5 C 204.711,190.542 208.545,194.542 207,203.5C 202,208.833 197,208.833 192,203.5C 190.593,198.643 191.76,194.643 195.5,191.5 Z"/></g>
</svg>
